#!OML:ASF E:\Steps\Project 1\Capture day 1\Session 2\Subject.ASF
:FULLY-SPECIFIED
:DEGREES
255
root 9.47981 16.2929 20.0673 -147.036 -3.79191 178.844
lowerback -25.6507 -2.38908 -5.66559
upperback -2.91334 -2.2366 -0.335595
thorax 11.2204 -1.59785 2.04201
lowerneck -8.53847 -6.22251 8.97802
upperneck 0.0151968 -9.4273 -11.8286
head 0.404016 -5.10028 -5.20568
rclavicle -1.98785e-015 -5.1684e-015
rhumerus -38.8114 -9.23398 -81.3203
rradius 36.6236
rwrist -3.56459
rhand -8.75452 -49.8187
rfingers 7.12502
rthumb 17.1827 -79.0789
lclavicle -1.98785e-015 -5.1684e-015
lhumerus -33.9741 -12.9475 82.9225
lradius 29.3524
lwrist -1.4407
lhand -22.4872 -13.3436
lfingers 7.12502
lthumb 3.93835 16.5997
rfemur -37.9716 10.1711 15.4378
rtibia 20.1277
rfoot -23.6976 -10.5134
rtoes -30.1091
lfemur -39.6717 -13.5954 -13.5797
ltibia 21.3379
lfoot -13.0782 4.28747
ltoes -33.7628
256
root 9.48449 16.2755 20.092 -146.705 -4.05594 178.817
lowerback -25.6391 -2.48451 -5.75624
upperback -2.67713 -2.30371 -0.14515
thorax 11.5051 -1.62771 2.28267
lowerneck -8.26195 -6.62252 8.54351
upperneck -0.77282 -9.99741 -11.2405
head 0.116968 -5.37048 -4.92394
rclavicle -1.03368e-014 -1.19271e-014
rhumerus -38.6099 -9.08195 -81.0352
rradius 36.9372
rwrist -3.73429
rhand -8.9132 -49.8032
rfingers 7.12502
rthumb 17.03 -79.0767
lclavicle -1.03368e-014 -1.19271e-014
lhumerus -33.4071 -12.6075 82.8563
lradius 29.2054
lwrist -1.9217
lhand -23.7051 -14.5448
lfingers 7.12502
lthumb 2.76216 15.4171
rfemur -39.086 9.90468 15.4794
rtibia 21.5444
rfoot -24.2838 -10.7216
rtoes -30.5496
lfemur -41.185 -13.6764 -13.4184
ltibia 23.3499
lfoot -13.7156 4.25193
ltoes -34.1508
257
root 9.48785 16.2485 20.1298 -146.15 -4.07714 178.86
lowerback -24.772 -2.31037 -5.37123
upperback -3.1552 -2.28936 -0.291891
thorax 10.4746 -1.59667 1.9391
lowerneck -8.31837 -6.57186 8.82109
upperneck -0.61229 -9.93282 -11.3483
head 0.160781 -5.3377 -5.00676
rclavicle 9.14409e-015 2.8625e-014
rhumerus -39.5213 -8.92322 -81.0736
rradius 37.4004
rwrist -3.72285
rhand -9.07187 -49.5897
rfingers 7.12502
rthumb 16.8773 -78.8763
lclavicle 9.14409e-015 2.8625e-014
lhumerus -34.0033 -12.6469 82.5612
lradius 29.3103
lwrist -2.02348
lhand -24.2992 -14.8139
lfingers 7.12502
lthumb 2.18836 15.1546
rfemur -40.7481 9.56109 15.5359
rtibia 23.3197
rfoot -24.9135 -10.6153
rtoes -30.778
lfemur -43.1171 -13.4511 -13.2578
ltibia 25.6131
lfoot -14.3459 4.29071
ltoes -35.8939
258
root 9.48829 16.2066 20.1805 -145.169 -3.80317 179.044
lowerback -25.1026 -2.11363 -5.12173
upperback -3.19209 -2.09573 -0.289525
thorax 10.5845 -1.50387 1.85458
lowerneck -8.32678 -6.55431 8.48721
upperneck -0.687661 -9.87331 -10.91
head 0.182804 -5.2971 -4.82131
rclavicle -1.98785e-015 -2.98177e-014
rhumerus -39.3231 -8.80082 -81.0491
rradius 37.5775
rwrist -3.74216
rhand -9.31769 -50.3927
rfingers 7.12502
rthumb 16.6406 -79.6993
lclavicle -1.98785e-015 -2.98177e-014
lhumerus -33.594 -12.5662 82.3184
lradius 29.1765
lwrist -2.13546
lhand -23.8405 -14.3679
lfingers 7.12502
lthumb 2.63139 15.5956
rfemur -43.2781 9.2814 15.5783
rtibia 25.5961
rfoot -25.6522 -10.1983
rtoes -30.7522
lfemur -45.6669 -12.9315 -12.9273
ltibia 27.966
lfoot -15.0023 4.35366
ltoes -35.8217
259
root 9.49031 16.1701 20.2074 -145.071 -4.06782 178.907
lowerback -23.788 -2.08949 -4.99062
upperback -3.56341 -2.1994 -0.341641
thorax 9.47089 -1.5311 1.73676
lowerneck -8.30788 -6.50628 8.57957
upperneck -0.561527 -9.79543 -10.9664
head 0.217347 -5.25552 -4.85535
rclavicle -2.38542e-015 3.97569e-016
rhumerus -40.0001 -8.66905 -80.9097
rradius 37.7002
rwrist -3.82237
rhand -9.44136 -50.8324
rfingers 7.12502
rthumb 16.5216 -80.149
lclavicle -2.38542e-015 3.97569e-016
lhumerus -34.1597 -12.4794 82.1592
lradius 29.0962
lwrist -2.37228
lhand -22.7014 -13.2309
lfingers 7.12502
lthumb 3.73141 16.7162
rfemur -44.2043 8.86066 15.615
rtibia 27.1758
rfoot -26.3701 -10.3159
rtoes -31.2316
lfemur -47.0192 -12.9799 -12.9774
ltibia 30.0318
lfoot -15.6171 4.02753
ltoes -34.8698
260
root 9.49575 16.1255 20.2386 -144.909 -4.31701 178.884
lowerback -23.5647 -2.13648 -4.95697
upperback -3.22668 -2.21234 -0.258623
thorax 9.73667 -1.51766 1.80763
lowerneck -8.36032 -6.49794 8.13644
upperneck -0.662322 -9.74435 -10.4201
head 0.247635 -5.21871 -4.62197
rclavicle 1.43125e-014 1.98785e-014
rhumerus -39.4576 -8.85301 -80.7004
rradius 37.6513
rwrist -3.77755
rhand -9.33475 -50.0331
rfingers 7.12502
rthumb 16.6242 -79.3411
lclavicle 1.43125e-014 1.98785e-014
lhumerus -33.5215 -12.3375 81.9832
lradius 29.0025
lwrist -2.33599
lhand -22.233 -12.4247
lfingers 7.12502
lthumb 4.18378 17.5139
rfemur -45.3083 8.48824 15.7735
rtibia 28.901
rfoot -27.1519 -10.2796
rtoes -31.664
lfemur -48.4782 -12.943 -12.8788
ltibia 32.174
lfoot -16.1698 3.73057
ltoes -35.1346
261
root 9.50496 16.0745 20.2776 -144.638 -4.57818 178.869
lowerback -22.427 -2.09196 -4.7974
upperback -3.57298 -2.28255 -0.284498
thorax 8.74375 -1.53254 1.71107
lowerneck -8.21912 -6.46878 8.20124
upperneck -0.599422 -9.68079 -10.3695
head 0.248571 -5.17694 -4.61209
rclavicle 1.23246e-014 2.18663e-014
rhumerus -40.2315 -8.51482 -80.6972
rradius 38.1682
rwrist -4.02337
rhand -9.13633 -49.3734
rfingers 7.12502
rthumb 16.8152 -78.6653
lclavicle 1.23246e-014 2.18663e-014
lhumerus -34.0929 -12.5169 81.8775
lradius 29.1996
lwrist -2.1792
lhand -22.5194 -12.6861
lfingers 7.12502
lthumb 3.90719 17.2578
rfemur -46.654 8.17818 15.8856
rtibia 30.7577
rfoot -27.9618 -10.0674
rtoes -30.99
lfemur -50.1055 -12.7405 -12.7879
ltibia 34.3694
lfoot -16.6938 3.35073
ltoes -35.2606
262
root 9.51246 16.0172 20.3157 -144.44 -4.9091 178.795
lowerback -22.0594 -2.15413 -4.74765
upperback -3.28574 -2.33084 -0.247302
thorax 8.87258 -1.53474 1.71689
lowerneck -8.36379 -6.44046 7.87693
upperneck -0.649127 -9.61741 -9.89682
head 0.299936 -5.13799 -4.42518
rclavicle 2.38542e-015 -2.0276e-014
rhumerus -40.0466 -8.18098 -80.864
rradius 38.8214
rwrist -4.32529
rhand -9.31215 -50.9959
rfingers 7.12502
rthumb 16.6459 -80.3021
lclavicle 2.38542e-015 -2.0276e-014
lhumerus -33.591 -12.3757 81.6205
lradius 29.2436
lwrist -2.23862
lhand -22.487 -13.2622
lfingers 7.12502
lthumb 3.93847 16.6811
rfemur -47.8332 7.8721 15.9333
rtibia 32.4193
rfoot -28.6797 -10.0114
rtoes -30.2192
lfemur -51.6058 -12.416 -12.8643
ltibia 36.5028
lfoot -17.2278 2.44903
ltoes -32.5167
263
root 9.51245 15.9357 20.3492 -143.945 -4.65966 179.077
lowerback -21.6672 -1.89112 -4.39102
upperback -3.40345 -2.0945 -0.265619
thorax 8.50506 -1.40556 1.5786
lowerneck -8.34944 -6.44272 7.68604
upperneck -0.567602 -9.58176 -9.62494
head 0.346008 -5.11006 -4.3154
rclavicle 3.97569e-015 -5.56597e-015
rhumerus -40.276 -8.02796 -80.8674
rradius 39.0935
rwrist -4.14371
rhand -9.75563 -50.7003
rfingers 7.12502
rthumb 16.219 -80.0418
lclavicle 3.97569e-015 -5.56597e-015
lhumerus -33.6286 -12.2088 81.4198
lradius 29.419
lwrist -2.25439
lhand -22.2413 -13.4277
lfingers 7.12502
lthumb 4.17573 16.5111
rfemur -49.6385 7.8642 16.1361
rtibia 34.4027
rfoot -29.3968 -9.71213
rtoes -30.0827
lfemur -53.3473 -11.6467 -12.7433
ltibia 38.5546
lfoot -17.7971 1.9053
ltoes -30.1179
264
root 9.52344 15.8559 20.3851 -143.666 -4.75749 179.031
lowerback -21.1277 -1.87756 -4.4889
upperback -3.32733 -2.05436 -0.200968
thorax 8.3046 -1.37494 1.73228
lowerneck -8.3428 -6.43533 7.44983
upperneck -0.671436 -9.54067 -8.94619
head 0.399109 -5.07279 -4.50896
rclavicle -7.95139e-015 2.10712e-014
rhumerus -40.2669 -7.80022 -80.7984
rradius 39.3084
rwrist -4.16903
rhand -10.174 -49.8523
rfingers 7.12502
rthumb 15.8161 -79.2262
lclavicle -7.95139e-015 2.10712e-014
lhumerus -33.3533 -12.1355 81.3544
lradius 29.4991
lwrist -2.11976
lhand -22.287 -13.5034
lfingers 7.12502
lthumb 4.1316 16.4363
rfemur -51.0518 7.49254 16.2825
rtibia 36.3813
rfoot -30.1904 -9.61325
rtoes -29.9986
lfemur -54.8937 -11.3208 -12.8016
ltibia 40.6681
lfoot -18.4546 1.35973
ltoes -29.3426
265
root 9.53507 15.7683 20.425 -143.241 -4.6462 179.145
lowerback -20.7611 -1.77515 -4.43842
upperback -3.27267 -1.92931 -0.178725
thorax 8.16013 -1.30355 1.77309
lowerneck -8.41046 -6.41664 7.20444
upperneck -0.635453 -9.48427 -8.60965
head 0.45709 -5.03588 -4.34799
rclavicle 1.2921e-014 -2.54444e-014
rhumerus -40.2299 -7.41901 -80.8852
rradius 39.6812
rwrist -4.46774
rhand -10.4192 -49.7308
rfingers 7.12502
rthumb 15.5799 -79.1233
lclavicle 1.2921e-014 -2.54444e-014
lhumerus -33.0664 -12.0557 81.1974
lradius 29.6478
lwrist -1.96543
lhand -22.4177 -13.4387
lfingers 7.12502
lthumb 4.00543 16.5034
rfemur -52.8672 7.24479 16.5363
rtibia 38.7176
rfoot -31.1064 -9.30016
rtoes -30.0682
lfemur -56.5897 -10.7341 -12.7747
ltibia 42.781
lfoot -19.1451 0.877355
ltoes -28.6396
266
root 9.54523 15.6761 20.4576 -143.075 -4.54576 179.183
lowerback -20.3507 -1.72744 -4.44177
upperback -3.03326 -1.83333 -0.179581
thorax 8.19792 -1.24138 1.8088
lowerneck -8.49557 -6.38408 6.92773
upperneck -0.604766 -9.40773 -8.22155
head 0.521522 -4.98811 -4.16481
rclavicle -4.96962e-015 -2.0276e-014
rhumerus -40.0767 -6.91329 -81.076
rradius 40.2576
rwrist -4.8684
rhand -10.4524 -49.599
rfingers 7.12502
rthumb 15.548 -78.9939
lclavicle -4.96962e-015 -2.0276e-014
lhumerus -32.6276 -11.7233 80.9596
lradius 29.8379
lwrist -1.90797
lhand -22.3699 -13.039
lfingers 7.12502
lthumb 4.05156 16.9022
rfemur -54.441 6.97762 16.7646
rtibia 41.1986
rfoot -32.1496 -8.95996
rtoes -29.9989
lfemur -57.8655 -10.1922 -12.9418
ltibia 44.6894
lfoot -19.6631 0.460225
ltoes -29.4199
